<?xml version="1.0" standalone="no"?>
<!DOCTYPE svg PUBLIC "-//W3C//DTD SVG 20010904//EN"
 "http://www.w3.org/TR/2001/REC-SVG-20010904/DTD/svg10.dtd">
<svg version="1.0" xmlns="http://www.w3.org/2000/svg"
 width="512.000000pt" height="512.000000pt" viewBox="0 0 512.000000 512.000000"
 preserveAspectRatio="xMidYMid meet">

<g transform="translate(0.000000,512.000000) scale(0.100000,-0.100000)"
fill="#000000" stroke="none">
<path d="M2435 4903 c-602 -37 -1143 -284 -1555 -709 -367 -378 -583 -831
-651 -1364 -16 -121 -16 -417 0 -540 53 -425 207 -804 465 -1150 91 -122 324
-355 446 -446 586 -437 1298 -582 1995 -408 659 166 1217 614 1521 1224 170
341 247 667 247 1050 0 646 -247 1231 -714 1686 -396 385 -903 611 -1469 654
-130 10 -175 10 -285 3z m323 -434 c384 -42 743 -194 1037 -441 544 -456 793
-1187 639 -1878 -94 -421 -315 -787 -639 -1058 -716 -600 -1754 -600 -2470 0
-545 456 -793 1184 -639 1877 39 172 77 280 160 446 253 509 696 865 1254
1007 207 52 451 70 658 47z"/>
<path d="M1835 3391 c-108 -50 -153 -172 -104 -281 14 -32 91 -116 272 -297
l251 -253 -261 -262 c-285 -288 -289 -293 -281 -398 8 -105 83 -180 188 -188
105 -8 111 -3 398 282 l262 260 253 -251 c181 -181 265 -258 297 -272 180 -81
360 99 279 279 -14 32 -91 116 -272 298 l-251 252 251 253 c181 181 258 265
272 297 81 180 -99 360 -279 279 -32 -14 -116 -91 -297 -272 l-253 -251 -252
251 c-269 268 -302 293 -388 293 -25 0 -63 -9 -85 -19z"/>
</g>
</svg>
